<svg width="284" height="21" viewBox="0 0 284 21" fill="none" xmlns="http://www.w3.org/2000/svg">
<g clip-path="url(#clip0_2351_278)">
<path d="M10 2.8025C12.67 2.8025 12.9867 2.8125 14.0417 2.86083C16.7517 2.98417 18.0175 4.27 18.1408 6.96C18.1892 8.01417 18.1983 8.33083 18.1983 11.0008C18.1983 13.6717 18.1883 13.9875 18.1408 15.0417C18.0167 17.7292 16.7542 19.0175 14.0417 19.1408C12.9867 19.1892 12.6717 19.1992 10 19.1992C7.33 19.1992 7.01333 19.1892 5.95917 19.1408C3.2425 19.0167 1.98333 17.725 1.86 15.0408C1.81167 13.9867 1.80167 13.6708 1.80167 11C1.80167 8.33 1.8125 8.01417 1.86 6.95917C1.98417 4.27 3.24667 2.98333 5.95917 2.86C7.01417 2.8125 7.33 2.8025 10 2.8025ZM10 1C7.28417 1 6.94417 1.01167 5.8775 1.06C2.24583 1.22667 0.2275 3.24167 0.0608333 6.87667C0.0116667 7.94417 0 8.28417 0 11C0 13.7158 0.0116667 14.0567 0.06 15.1233C0.226667 18.755 2.24167 20.7733 5.87667 20.94C6.94417 20.9883 7.28417 21 10 21C12.7158 21 13.0567 20.9883 14.1233 20.94C17.7517 20.7733 19.775 18.7583 19.9392 15.1233C19.9883 14.0567 20 13.7158 20 11C20 8.28417 19.9883 7.94417 19.94 6.8775C19.7767 3.24917 17.7592 1.2275 14.1242 1.06083C13.0567 1.01167 12.7158 1 10 1V1ZM10 5.865C7.16417 5.865 4.865 8.16417 4.865 11Cnan nan 7.16417 16.1358 10 16.1358Cnan nan 15.135 13.8367 15.135 11Cnan nan 12.8358 5.865 10 5.865ZM10 14.3333C8.15917 14.3333 6.66667 12.8417 6.66667 11C6.66667 9.15917 8.15917 7.66667 10 7.66667Cnan nan 13.3333 9.15917 13.3333 11C13.3333 12.8417 11.8408 14.3333 10 14.3333ZM15.3383 4.4625C14.675 4.4625 14.1375 5 14.1375 5.6625Cnan nan 14.675 6.8625 15.3383 6.8625C16.0008 6.8625 16.5375 6.325 16.5375 5.6625Cnan nan 16.0008 4.4625 15.3383 4.4625Z" fill="#57534E"/>
</g>
<g clip-path="url(#clip1_2351_278)">
<path d="M54 0.999141C48.4775 0.999141 44 5.47581 44 10.9991C44 15.2358 46.6358 18.8541 50.3558 20.3108C50.2683 19.52 50.1892 18.3066 50.3908 17.4433C50.5725 16.6625 51.5633 12.4725 51.5633 12.4725C51.5633 12.4725 51.2642 11.8733 51.2642 10.9875C51.2642 9.59747 52.07 8.55914 53.0733 8.55914C53.9258 8.55914 54.3383 9.19997 54.3383 9.96747C54.3383 10.825 53.7925 12.1075 53.51 13.2966C53.2742 14.2916 54.0092 15.1041 54.9908 15.1041C56.7683 15.1041 58.1342 13.23 58.1342 10.525C58.1342 8.13081 56.4142 6.45664 53.9575 6.45664C51.1125 6.45664 49.4425 8.59081 49.4425 10.7958C49.4425 11.655 49.7733 12.5775 50.1867 13.0775C50.2683 13.1766 50.28 13.2641 50.2558 13.365C50.18 13.6775 50.0117 14.3641 49.9775 14.5008C49.9333 14.68 49.8325 14.7175 49.6433 14.6291C48.3975 14.0483 47.6183 12.225 47.6183 10.76C47.6183 7.60997 49.9067 4.71664 54.2175 4.71664C57.6825 4.71664 60.3775 7.18664 60.3775 10.4866C60.3775 13.9291 58.205 16.6966 55.1925 16.6966C54.18 16.6966 53.2275 16.1708 52.9008 15.5491L52.2775 17.9266C52.0517 18.7958 51.4425 19.885 51.0342 20.5483C51.9708 20.8375 52.965 20.9941 53.9958 20.9941C59.5183 20.9941 63.9958 16.5166 63.9958 10.9941C63.9958 5.47081 59.5183 0.994141 53.9958 0.994141L54 0.999141Z" fill="#57534E"/>
</g>
<g clip-path="url(#clip2_2351_278)">
<path d="M108 11.0605C108 5.53805 103.523 1.06055 98 1.06055C92.4775 1.06055 88 5.53805 88 11.0605C88 16.0522 91.6567 20.1889 96.4375 20.9389V13.9514H93.8983V11.0605H96.4375V8.85805C96.4375 6.35221 97.9308 4.96721 100.215 4.96721C101.308 4.96721 102.453 5.16305 102.453 5.16305V7.62388H101.192C99.9492 7.62388 99.5617 8.39471 99.5617 9.18555V11.0605H102.335L101.892 13.9514H99.5617V20.9389C104.343 20.1889 108 16.0514 108 11.0605Z" fill="#57534E"/>
</g>
<defs>
<clipPath id="clip0_2351_278">
<rect width="20" height="20" fill="white" transform="translate(0 1)"/>
</clipPath>
<clipPath id="clip1_2351_278">
<rect width="20" height="20" fill="white" transform="translate(44 1)"/>
</clipPath>
<clipPath id="clip2_2351_278">
<rect width="20" height="20" fill="white" transform="translate(88 1)"/>
</clipPath>
</defs>
</svg>
