<svg width="16" height="16" viewBox="0 0 16 16" fill="none" xmlns="http://www.w3.org/2000/svg">
<path d="M5.62498 9.40701V2.40699L3.57051 4.46147L2.69232 3.55765L6.24997 0L9.80762 3.55765L8.92943 4.46147L6.87495 2.40699V9.40701H5.62498ZM1.5064 12.4999C1.08546 12.4999 0.72916 12.3541 0.437496 12.0624C0.145832 11.7708 0 11.4145 0 10.9935V8.73394H1.24997V10.9935C1.24997 11.0576 1.27668 11.1164 1.3301 11.1698C1.38353 11.2233 1.44229 11.25 1.5064 11.25H10.9935C11.0576 11.25 11.1164 11.2233 11.1698 11.1698C11.2233 11.1164 11.25 11.0576 11.25 10.9935V8.73394H12.4999V10.9935C12.4999 11.4145 12.3541 11.7708 12.0624 12.0624C11.7708 12.3541 11.4145 12.4999 10.9935 12.4999H1.5064Z" fill="white"/>
</svg>
