<svg width="100" height="20" viewBox="0 0 100 20" fill="none" xmlns="http://www.w3.org/2000/svg">
<path d="M9.23915 2.34164C9.47864 1.60459 10.5214 1.60459 10.7608 2.34164L12.0655 6.35704C12.1726 6.68666 12.4798 6.90983 12.8264 6.90983H17.0484C17.8234 6.90983 18.1456 7.90152 17.5186 8.35704L14.1029 10.8387C13.8226 11.0424 13.7052 11.4035 13.8123 11.7331L15.117 15.7485C15.3565 16.4856 14.5129 17.0985 13.8859 16.643L10.4702 14.1613C10.1898 13.9576 9.81016 13.9576 9.52977 14.1613L6.11407 16.643C5.48709 17.0985 4.64351 16.4856 4.88299 15.7485L6.18768 11.7331C6.29478 11.4035 6.17745 11.0424 5.89706 10.8387L2.48135 8.35704C1.85438 7.90152 2.1766 6.90983 2.95158 6.90983H7.17363C7.52021 6.90983 7.82737 6.68666 7.93447 6.35704L9.23915 2.34164Z" fill="#FFBE3B"/>
<path d="M29.2392 2.34164C29.4786 1.60459 30.5214 1.60459 30.7608 2.34164L32.0655 6.35704C32.1726 6.68666 32.4798 6.90983 32.8264 6.90983H37.0484C37.8234 6.90983 38.1456 7.90152 37.5186 8.35704L34.1029 10.8387C33.8226 11.0424 33.7052 11.4035 33.8123 11.7331L35.117 15.7485C35.3565 16.4856 34.5129 17.0985 33.8859 16.643L30.4702 14.1613C30.1898 13.9576 29.8102 13.9576 29.5298 14.1613L26.1141 16.643C25.4871 17.0985 24.6435 16.4856 24.883 15.7485L26.1877 11.7331C26.2948 11.4035 26.1774 11.0424 25.8971 10.8387L22.4814 8.35704C21.8544 7.90152 22.1766 6.90983 22.9516 6.90983H27.1736C27.5202 6.90983 27.8274 6.68666 27.9345 6.35704L29.2392 2.34164Z" fill="#FFBE3B"/>
<path d="M49.2392 2.34164C49.4786 1.60459 50.5214 1.60459 50.7608 2.34164L52.0655 6.35704C52.1726 6.68666 52.4798 6.90983 52.8264 6.90983H57.0484C57.8234 6.90983 58.1456 7.90152 57.5186 8.35704L54.1029 10.8387C53.8226 11.0424 53.7052 11.4035 53.8123 11.7331L55.117 15.7485C55.3565 16.4856 54.5129 17.0985 53.8859 16.643L50.4702 14.1613C50.1898 13.9576 49.8102 13.9576 49.5298 14.1613L46.1141 16.643C45.4871 17.0985 44.6435 16.4856 44.883 15.7485L46.1877 11.7331C46.2948 11.4035 46.1774 11.0424 45.8971 10.8387L42.4814 8.35704C41.8544 7.90152 42.1766 6.90983 42.9516 6.90983H47.1736C47.5202 6.90983 47.8274 6.68666 47.9345 6.35704L49.2392 2.34164Z" fill="#FFBE3B"/>
<path d="M69.2392 2.34164C69.4786 1.60459 70.5214 1.60459 70.7608 2.34164L72.0655 6.35704C72.1726 6.68666 72.4798 6.90983 72.8264 6.90983H77.0484C77.8234 6.90983 78.1456 7.90152 77.5186 8.35704L74.1029 10.8387C73.8226 11.0424 73.7052 11.4035 73.8123 11.7331L75.117 15.7485C75.3565 16.4856 74.5129 17.0985 73.8859 16.643L70.4702 14.1613C70.1898 13.9576 69.8102 13.9576 69.5298 14.1613L66.1141 16.643C65.4871 17.0985 64.6435 16.4856 64.883 15.7485L66.1877 11.7331C66.2948 11.4035 66.1774 11.0424 65.8971 10.8387L62.4814 8.35704C61.8544 7.90152 62.1766 6.90983 62.9516 6.90983H67.1736C67.5202 6.90983 67.8274 6.68666 67.9345 6.35704L69.2392 2.34164Z" fill="#FFBE3B"/>
<path d="M89.2392 2.34164C89.4786 1.60459 90.5214 1.60459 90.7608 2.34164L92.0655 6.35704C92.1726 6.68666 92.4798 6.90983 92.8264 6.90983H97.0484C97.8234 6.90983 98.1456 7.90152 97.5186 8.35704L94.1029 10.8387C93.8226 11.0424 93.7052 11.4035 93.8123 11.7331L95.117 15.7485C95.3565 16.4856 94.5129 17.0985 93.8859 16.643L90.4702 14.1613C90.1898 13.9576 89.8102 13.9576 89.5298 14.1613L86.1141 16.643C85.4871 17.0985 84.6435 16.4856 84.883 15.7485L86.1877 11.7331C86.2948 11.4035 86.1774 11.0424 85.8971 10.8387L82.4814 8.35704C81.8544 7.90152 82.1766 6.90983 82.9516 6.90983H87.1736C87.5202 6.90983 87.8274 6.68666 87.9345 6.35704L89.2392 2.34164Z" fill="#FFBE3B"/>
</svg>
