<svg width="42" height="20" viewBox="0 0 42 20" fill="none" xmlns="http://www.w3.org/2000/svg">
<path d="M-8.76085 2.34164C-8.52136 1.60459 -7.47864 1.60459 -7.23915 2.34164L-5.93447 6.35704C-5.82737 6.68666 -5.52021 6.90983 -5.17363 6.90983H-0.95158C-0.176601 6.90983 0.145617 7.90152 -0.481354 8.35704L-3.89706 10.8387C-4.17745 11.0424 -4.29478 11.4035 -4.18768 11.7331L-2.88299 15.7485C-2.64351 16.4856 -3.48709 17.0985 -4.11407 16.643L-7.52977 14.1613C-7.81016 13.9576 -8.18984 13.9576 -8.47023 14.1613L-11.8859 16.643C-12.5129 17.0985 -13.3565 16.4856 -13.117 15.7485L-11.8123 11.7331C-11.7052 11.4035 -11.8226 11.0424 -12.1029 10.8387L-15.5186 8.35704C-16.1456 7.90152 -15.8234 6.90983 -15.0484 6.90983H-10.8264C-10.4798 6.90983 -10.1726 6.68666 -10.0655 6.35704L-8.76085 2.34164Z" fill="#FFBE3B"/>
<path d="M11.2392 2.34164C11.4786 1.60459 12.5214 1.60459 12.7608 2.34164L14.0655 6.35704C14.1726 6.68666 14.4798 6.90983 14.8264 6.90983H19.0484C19.8234 6.90983 20.1456 7.90152 19.5186 8.35704L16.1029 10.8387C15.8226 11.0424 15.7052 11.4035 15.8123 11.7331L17.117 15.7485C17.3565 16.4856 16.5129 17.0985 15.8859 16.643L12.4702 14.1613C12.1898 13.9576 11.8102 13.9576 11.5298 14.1613L8.11407 16.643C7.48709 17.0985 6.64351 16.4856 6.88299 15.7485L8.18768 11.7331C8.29478 11.4035 8.17745 11.0424 7.89706 10.8387L4.48135 8.35704C3.85438 7.90152 4.1766 6.90983 4.95158 6.90983H9.17363C9.52021 6.90983 9.82737 6.68666 9.93447 6.35704L11.2392 2.34164Z" fill="#FFBE3B"/>
<path d="M31.2392 2.34164C31.4786 1.60459 32.5214 1.60459 32.7608 2.34164L34.0655 6.35704C34.1726 6.68666 34.4798 6.90983 34.8264 6.90983H39.0484C39.8234 6.90983 40.1456 7.90152 39.5186 8.35704L36.1029 10.8387C35.8226 11.0424 35.7052 11.4035 35.8123 11.7331L37.117 15.7485C37.3565 16.4856 36.5129 17.0985 35.8859 16.643L32.4702 14.1613C32.1898 13.9576 31.8102 13.9576 31.5298 14.1613L28.1141 16.643C27.4871 17.0985 26.6435 16.4856 26.883 15.7485L28.1877 11.7331C28.2948 11.4035 28.1774 11.0424 27.8971 10.8387L24.4814 8.35704C23.8544 7.90152 24.1766 6.90983 24.9516 6.90983H29.1736C29.5202 6.90983 29.8274 6.68666 29.9345 6.35704L31.2392 2.34164Z" fill="#FFBE3B"/>
</svg>
