<svg width="191" height="470" viewBox="0 0 191 470" fill="none" xmlns="http://www.w3.org/2000/svg">
<rect width="264" height="469.33" rx="8" fill="black" fill-opacity="0.1"/>
<path d="M129 240.03L137.365 234.665L129 229.3V240.03ZM132.005 248.165C130.138 248.165 128.383 247.811 126.74 247.102C125.096 246.394 123.667 245.432 122.451 244.218C121.235 243.003 120.273 241.575 119.564 239.933C118.855 238.291 118.5 236.537 118.5 234.67C118.5 232.803 118.854 231.048 119.563 229.405C120.271 227.761 121.233 226.332 122.447 225.116C123.662 223.9 125.09 222.938 126.732 222.229C128.374 221.52 130.128 221.165 131.995 221.165C133.862 221.165 135.617 221.519 137.26 222.228C138.904 222.936 140.333 223.898 141.549 225.112C142.765 226.327 143.727 227.755 144.436 229.397C145.145 231.039 145.5 232.793 145.5 234.66C145.5 236.527 145.146 238.282 144.437 239.925C143.729 241.569 142.767 242.998 141.553 244.214C140.338 245.43 138.91 246.392 137.268 247.101C135.626 247.81 133.872 248.165 132.005 248.165ZM132 246.665C135.35 246.665 138.188 245.503 140.513 243.178C142.838 240.853 144 238.015 144 234.665C144 231.315 142.838 228.478 140.513 226.153C138.188 223.828 135.35 222.665 132 222.665C128.65 222.665 125.813 223.828 123.488 226.153C121.163 228.478 120 231.315 120 234.665C120 238.015 121.163 240.853 123.488 243.178C125.813 245.503 128.65 246.665 132 246.665Z" fill="white" fill-opacity="0.8"/>
</svg>
